<svg width="31" height="44" viewBox="0 0 31 44" fill="none" xmlns="http://www.w3.org/2000/svg">
<g id="ar_icon">
<path id="XMLID 1447" d="M10.3619 29.0116L14.156 30.5293V25.6652L10.3619 24.1476V29.0116Z" fill="#E52229"/>
<path id="XMLID 1498" d="M11.6266 0.779541H19.2148V5.83836H11.6266V0.779541Z" fill="#E52229"/>
<path id="XMLID 1499" d="M16.6854 30.5293L20.4796 29.0116V24.1476L16.6854 25.6652V30.5293Z" fill="#E52229"/>
<path id="XMLID 1500" d="M12.5025 22.2796L15.4207 23.447L18.3389 22.2796L15.4207 21.1123L12.5025 22.2796Z" fill="#E52229"/>
<path id="XMLID 1509" d="M21.7443 0.779541V8.36778H9.0972V0.779541H3.24426C1.5874 0.779541 0.244255 2.12269 0.244255 3.77954V40.7795C0.244255 42.4364 1.5874 43.7795 3.24426 43.7795H27.5972C29.2541 43.7795 30.5972 42.4364 30.5972 40.7795V3.77954C30.5972 2.12269 29.2541 0.779541 27.5972 0.779541H21.7443ZM15.4207 10.3733L20.1091 15.0617L18.3205 16.8502L15.4207 13.9504L12.5208 16.8502L10.7323 15.0617L15.4207 10.3733ZM20.4795 39.9854H10.3619V37.456H20.4795V39.9854ZM23.009 30.724L15.4207 33.7593L7.83249 30.724V21.4233L15.4207 18.388L23.009 21.4233V30.724Z" fill="#E52229"/>
</g>
</svg>
