<svg width="43" height="43" viewBox="0 0 43 43" fill="none" xmlns="http://www.w3.org/2000/svg">
<path id="info_icon" d="M21.0669 0.863953C9.47046 0.863953 0.0677872 10.2666 0.0677872 21.8631C0.0677872 33.4595 9.47046 42.864 21.0669 42.864C32.6633 42.864 42.0678 33.4595 42.0678 21.8631C42.0678 10.2666 32.6633 0.863953 21.0669 0.863953ZM25.4385 33.4097C24.3576 33.8364 23.4971 34.16 22.8518 34.384C22.2082 34.608 21.4598 34.72 20.6082 34.72C19.2998 34.72 18.2811 34.4 17.5558 33.7617C16.8305 33.1235 16.4696 32.3146 16.4696 31.3315C16.4696 30.9493 16.4962 30.5582 16.5496 30.16C16.6047 29.7617 16.6918 29.3137 16.8109 28.8106L18.1638 24.032C18.2829 23.5733 18.386 23.1377 18.4678 22.7324C18.5496 22.3235 18.5887 21.9484 18.5887 21.6071C18.5887 20.9991 18.4625 20.5724 18.2118 20.3324C17.9576 20.0924 17.4793 19.9751 16.7665 19.9751C16.418 19.9751 16.0589 20.0266 15.6909 20.1351C15.3265 20.2471 15.01 20.3484 14.7505 20.448L15.1078 18.976C15.9931 18.6151 16.8411 18.3057 17.65 18.0497C18.4589 17.7902 19.2233 17.6622 19.9433 17.6622C21.2429 17.6622 22.2456 17.9786 22.9513 18.6044C23.6536 19.232 24.0073 20.048 24.0073 21.0506C24.0073 21.2586 23.9825 21.6248 23.9345 22.1475C23.8865 22.672 23.7958 23.1502 23.6642 23.5893L22.3185 28.3537C22.2082 28.736 22.1105 29.1733 22.0216 29.6622C21.9345 30.1511 21.8918 30.5244 21.8918 30.7751C21.8918 31.408 22.0322 31.84 22.3167 32.0693C22.5976 32.2986 23.09 32.4142 23.7869 32.4142C24.1158 32.4142 24.4838 32.3555 24.8998 32.2417C25.3122 32.128 25.6109 32.0266 25.7993 31.9395L25.4385 33.4097ZM25.2002 14.0711C24.5727 14.6542 23.8171 14.9457 22.9336 14.9457C22.0518 14.9457 21.2909 14.6542 20.658 14.0711C20.0287 13.488 19.7105 12.7786 19.7105 11.9502C19.7105 11.1235 20.0305 10.4124 20.658 9.82395C21.2909 9.23373 22.0518 8.9404 22.9336 8.9404C23.8171 8.9404 24.5745 9.23373 25.2002 9.82395C25.8278 10.4124 26.1425 11.1235 26.1425 11.9502C26.1425 12.7804 25.8278 13.488 25.2002 14.0711Z" fill="#E52229"/>
</svg>
