<svg width="31" height="44" viewBox="0 0 31 44" fill="none" xmlns="http://www.w3.org/2000/svg">
<g id="Group 867">
<path id="Vector" d="M15.4494 0C6.92631 0 0 6.92648 0 15.4494C0 18.3333 0.79839 21.14 2.31749 23.5604L14.4021 43.3368C14.6083 43.6716 14.9172 43.8776 15.2778 43.9291C15.7669 44.0063 16.3079 43.8004 16.591 43.3112L28.7102 23.3543C30.152 20.9855 30.8988 18.2304 30.8988 15.4494C30.8988 6.92648 23.9725 0 15.4494 0ZM15.4494 23.1741C11.1237 23.1741 7.7247 19.6722 7.7247 15.4494C7.7247 11.2007 11.2007 7.7247 15.4494 7.7247C19.6981 7.7247 23.1741 11.2007 23.1741 15.4494C23.1741 19.6465 19.8266 23.1741 15.4494 23.1741Z" fill="#E52229"/>
</g>
</svg>
