<svg width="33" height="33" viewBox="0 0 33 33" fill="none" xmlns="http://www.w3.org/2000/svg">
<path id="Vector" d="M16.4993 0C7.38781 0 0 7.38781 0 16.4993C0 25.6108 7.38781 33 16.4993 33C25.6108 33 33 25.6108 33 16.4993C33 7.38781 25.6108 0 16.4993 0ZM19.9341 25.5717C19.0848 25.9069 18.4088 26.1611 17.9017 26.3371C17.3961 26.5131 16.808 26.6011 16.1389 26.6011C15.1109 26.6011 14.3105 26.3497 13.7406 25.8483C13.1707 25.3468 12.8871 24.7112 12.8871 23.9388C12.8871 23.6385 12.9081 23.3312 12.95 23.0183C12.9933 22.7054 13.0617 22.3534 13.1553 21.9581L14.2183 18.2034C14.3119 17.843 14.3929 17.5008 14.4571 17.1823C14.5214 16.8611 14.5521 16.5663 14.5521 16.2982C14.5521 15.8204 14.453 15.4852 14.256 15.2966C14.0563 15.1081 13.6805 15.0159 13.1204 15.0159C12.8466 15.0159 12.5644 15.0564 12.2753 15.1416C11.989 15.2296 11.7403 15.3092 11.5364 15.3874L11.8171 14.2309C12.5128 13.9473 13.179 13.7043 13.8146 13.5031C14.4502 13.2992 15.0508 13.1986 15.6165 13.1986C16.6376 13.1986 17.4254 13.4472 17.9799 13.9389C18.5317 14.432 18.8097 15.0731 18.8097 15.861C18.8097 16.0244 18.7901 16.3121 18.7524 16.7228C18.7147 17.1349 18.6434 17.5106 18.5401 17.8556L17.4827 21.5991C17.3961 21.8994 17.3192 22.243 17.2494 22.6272C17.181 23.0113 17.1474 23.3046 17.1474 23.5016C17.1474 23.9989 17.2578 24.3383 17.4813 24.5185C17.702 24.6987 18.0889 24.7895 18.6364 24.7895C18.8949 24.7895 19.184 24.7434 19.5109 24.654C19.8349 24.5646 20.0696 24.485 20.2177 24.4165L19.9341 25.5717ZM19.7469 10.377C19.2538 10.8352 18.6602 11.0643 17.966 11.0643C17.2731 11.0643 16.6753 10.8352 16.178 10.377C15.6836 9.91886 15.4335 9.36152 15.4335 8.7106C15.4335 8.06108 15.685 7.50235 16.178 7.04C16.6753 6.57625 17.2731 6.34578 17.966 6.34578C18.6602 6.34578 19.2552 6.57625 19.7469 7.04C20.24 7.50235 20.4872 8.06108 20.4872 8.7106C20.4872 9.36292 20.24 9.91886 19.7469 10.377Z" fill="#0A0F20"/>
</svg>
